<svg width="116" height="116" viewBox="0 0 116 116" fill="none" xmlns="http://www.w3.org/2000/svg">
<g clip-path="url(#clip0_1_1689)">
<g clip-path="url(#clip1_1_1689)">
<path d="M82.2873 82.687C82.2385 82.3188 82.3058 81.8996 82.4869 81.4278C82.6849 80.9272 82.9603 80.4747 83.3133 80.0702C83.8802 79.4046 84.5384 79.046 85.2851 78.9952C86.0306 78.9442 86.7788 79.215 87.5287 79.806L87.9722 80.1777C88.4721 80.6043 88.8336 81.066 89.0569 81.5616C89.2798 82.0372 89.352 82.5351 89.2709 83.055C89.1812 83.5866 88.9561 84.0533 88.598 84.4568C88.0582 85.0889 87.4947 85.4576 86.9055 85.5599C86.3173 85.6638 85.7115 85.5001 85.0871 85.0674L86.0925 83.8868C86.4128 84.0874 86.6918 84.1697 86.9324 84.1327C87.1727 84.0971 87.402 83.9511 87.6204 83.6948C87.7485 83.5534 87.8318 83.3883 87.8714 83.2009C87.9096 83.0146 87.8985 82.8302 87.8366 82.6487C87.7189 82.2591 87.4182 81.857 86.9362 81.4415L86.6293 81.1798C86.1213 80.7465 85.6674 80.5091 85.2641 80.4644C84.8618 80.4212 84.501 80.585 84.1842 80.9575C83.9125 81.2759 83.7806 81.5739 83.79 81.8506L84.5783 82.5237L85.305 81.6721L86.1464 82.389L84.3745 84.4671L82.2873 82.687Z" fill="white"/>
<path d="M78.6205 92.8534L76.1433 89.2513C75.8622 88.8434 75.7064 88.4299 75.6743 88.0117C75.6415 87.5828 75.7356 87.1843 75.9542 86.8143C76.1706 86.4346 76.5019 86.0924 76.9458 85.7873C77.6154 85.3262 78.2635 85.1377 78.8876 85.22C79.513 85.3025 80.0372 85.6435 80.4604 86.243L82.9567 89.8723L81.6221 90.7899L79.1079 87.135C78.6782 86.5423 78.1922 86.4341 77.6478 86.8075C77.3724 86.9969 77.2162 87.2153 77.179 87.4639C77.1418 87.7125 77.2407 88.0063 77.4756 88.3465L79.9475 91.9411L78.6205 92.8534Z" fill="white"/>
<path d="M68.7239 91.3262L70.8025 90.5834L70.7456 89.279L72.3655 88.6999L72.305 95.8144L70.8796 96.3247L66.3093 90.8634L67.9376 90.2819L68.7239 91.3262ZM70.8575 91.8836L69.5056 92.3671L70.963 94.3072L70.8575 91.8836Z" fill="white"/>
<path d="M61.162 93.945L62.0311 93.8748L61.8419 91.5211L63.4461 91.3914L63.9802 98.0502L61.3597 98.2598C60.5712 98.323 59.9387 98.1983 59.4666 97.8837C58.9933 97.5688 58.731 97.0915 58.6798 96.4519C58.6424 95.9891 58.7048 95.5982 58.8683 95.2779C59.0317 94.959 59.3054 94.6886 59.6894 94.4681L58.0839 91.891L58.0774 91.8225L59.7969 91.6841L61.162 93.945ZM62.1293 95.1099L61.1141 95.1913C60.8097 95.2157 60.5861 95.3138 60.4445 95.4871C60.3044 95.6594 60.2453 95.8896 60.2685 96.178C60.2906 96.4648 60.3868 96.6841 60.556 96.8342C60.7237 96.9854 60.9597 97.0495 61.2615 97.0247L62.2768 96.9433L62.1293 95.1099Z" fill="white"/>
<path d="M50.9545 92.1731L53.1217 92.5923L53.7362 91.4393L55.4251 91.7662L51.7538 97.8606L50.2667 97.5733L49.1099 90.5469L50.8081 90.8741L50.9545 92.1731ZM52.5068 93.7399L51.0978 93.4677L51.3654 95.8789L52.5068 93.7399Z" fill="white"/>
<path d="M41.3285 87.2115L42.7702 87.906L43.1015 92.678L44.9045 88.9315L46.3547 89.6302L43.4581 95.6496L42.0079 94.951L41.6815 90.1812L39.8788 93.9264L38.4309 93.2295L41.3285 87.2115Z" fill="white"/>
<path d="M31.0621 86.0914L32.5857 87.394L36.1187 83.2611L37.3422 84.3085L33.8093 88.4401L35.3052 89.7193L34.4972 90.6649L30.2544 87.0358L31.0621 86.0914Z" fill="white"/>
<path d="M27.8218 77.8869L29.2982 79.944L30.5952 79.0145L28.8517 76.5824L29.8582 75.8608L32.5399 79.6007L27.1122 83.4934L24.4252 79.7459L25.4347 79.0222L27.1837 81.4606L28.3282 80.639L26.852 78.5806L27.8218 77.8869Z" fill="white"/>
<path d="M24.1821 70.3645L25.147 72.7056L26.6225 72.0985L25.484 69.3327L26.629 68.8603L28.3814 73.116L22.2041 75.6587L20.4491 71.3947L21.5982 70.9217L22.7406 73.696L24.0435 73.1602L23.0789 70.8178L24.1821 70.3645Z" fill="white"/>
<path d="M50.0605 104.858C49.1182 104.691 48.1809 104.495 47.2501 104.27C46.3206 104.045 45.3973 103.793 44.4818 103.511C43.5663 103.229 42.6609 102.92 41.7643 102.583C40.8692 102.246 39.984 101.882 39.1102 101.491C38.2354 101.099 37.3755 100.682 36.5268 100.239C35.6783 99.7941 34.8449 99.3245 34.0251 98.8296C33.2054 98.3347 32.4019 97.8149 31.6148 97.2702C30.8261 96.7265 30.0563 96.1584 29.3038 95.567C28.55 94.9753 27.8162 94.3606 27.1008 93.7241C26.3866 93.0878 25.6908 92.4297 25.0158 91.7514C24.341 91.0718 23.6882 90.3723 23.056 89.6539C22.424 88.9343 21.8137 88.196 21.2278 87.4396C20.6407 86.6829 20.0777 85.9093 19.5388 85.1188C18.9988 84.3268 18.4838 83.5207 17.9943 82.6979C17.5047 81.8752 17.0401 81.0383 16.6018 80.1875C16.1621 79.3365 15.7511 78.4734 15.365 77.5962C14.9787 76.7202 14.6207 75.8334 14.2888 74.9339C13.9579 74.036 13.6552 73.1285 13.379 72.2125C13.1032 71.2952 12.8562 70.3711 12.6372 69.4387C12.4182 68.5063 12.2279 67.5683 12.0664 66.6249C11.9048 65.6815 11.7718 64.7338 11.6688 63.7809C11.5655 62.8292 11.4903 61.8759 11.4462 60.9188C11.4006 59.9628 11.3856 59.0055 11.3985 58.0479C11.4126 57.0905 11.4554 56.1355 11.5273 55.1803C11.6004 54.2254 11.7008 53.274 11.8323 52.3254C11.9626 51.3765 12.1224 50.4329 12.3104 49.4943C12.4997 48.5559 12.7156 47.6235 12.9619 46.6991C13.2072 45.7732 13.4812 44.8563 13.783 43.947C14.0846 43.0389 14.4137 42.1397 14.7699 41.2519C15.1276 40.363 15.5109 39.4865 15.9213 38.6215C16.3316 37.7564 16.7686 36.9053 17.2312 36.0666C17.6948 35.2295 18.1824 34.4058 18.6952 33.5972C19.2093 32.7887 19.7468 31.9976 20.3081 31.2213C20.8704 30.4465 21.4549 29.6889 22.0625 28.9498C22.6716 28.2097 23.3009 27.4903 23.9533 26.7896C24.6058 26.0889 25.2798 25.4078 25.9738 24.7488C26.6665 24.0895 27.3807 23.4512 28.1132 22.836C28.8473 22.2197 29.5984 21.6263 30.3678 21.0573C31.1374 20.4869 31.9236 19.942 32.7257 19.4197C33.5289 18.8989 34.3477 18.402 35.1806 17.9301C36.0134 17.4582 36.86 17.0138 37.7208 16.5931C38.5815 16.1737 39.4545 15.7816 40.3389 15.4152C41.2245 15.0491 42.1184 14.711 43.0249 14.3988C43.9299 14.0877 44.8445 13.8047 45.7674 13.5496C46.6903 13.2945 47.62 13.0684 48.5567 12.87C49.4934 12.6716 50.4344 12.5016 51.3819 12.362C52.3296 12.221 53.28 12.1096 54.2332 12.0278C55.1879 11.9449 56.1425 11.8925 57.1 11.8683C58.0574 11.8453 59.0136 11.8513 59.9712 11.8866C60.9278 11.9204 61.8828 11.9857 62.8356 12.0784C63.7882 12.1723 64.7371 12.2946 65.6821 12.4467C66.6285 12.5977 67.5683 12.7793 68.5021 12.9876C69.4369 13.1974 70.3629 13.4347 71.2836 13.7015C72.2031 13.9681 73.1141 14.2609 74.0157 14.5839C74.9175 14.9055 75.808 15.2542 76.6882 15.6316C77.5685 16.0076 78.4362 16.4105 79.2925 16.8404C80.1476 17.2702 80.9889 17.7253 81.8175 18.2072C82.6449 18.6889 83.4562 19.1943 84.2535 19.7262C85.0498 20.2567 85.8298 20.812 86.5925 21.3907C87.3551 21.9695 88.0991 22.5713 88.8245 23.1964C89.5502 23.8201 90.2559 24.4668 90.9421 25.1339C91.6282 25.8022 92.2935 26.4907 92.938 27.1994C93.5813 27.9078 94.2028 28.6348 94.8022 29.3818C95.4017 30.1287 95.9783 30.8928 96.5305 31.675C97.083 32.456 97.6111 33.2552 98.1142 34.0684C98.6184 34.8832 99.0964 35.7119 99.5491 36.5559C100.002 37.4 100.429 38.2566 100.828 39.1256C101.229 39.9962 101.602 40.8765 101.949 41.7692C102.295 42.6619 102.613 43.5642 102.904 44.4763C103.196 45.3884 103.458 46.3086 103.692 47.2371C103.926 48.1656 104.133 49.0998 104.31 50.0406C104.488 50.9816 104.635 51.9279 104.755 52.8771C104.874 53.8277 104.964 54.7796 105.026 55.7358C105.086 56.6918 105.118 57.6481 105.12 58.6057C105.123 59.5622 105.096 60.5186 105.04 61.4752C104.982 62.4302 104.897 63.3844 104.783 64.3347C104.668 65.2849 104.524 66.2313 104.351 67.1726C104.179 68.114 103.978 69.0504 103.748 69.9803C103.517 70.9087 103.259 71.831 102.972 72.7444C102.685 73.6577 102.371 74.5609 102.03 75.4553C101.687 76.3494 101.319 77.2325 100.923 78.1054C100.526 78.9768 100.104 79.8344 99.6554 80.6809C99.2061 81.5272 98.7318 82.3572 98.232 83.1748C97.7324 83.991 97.209 84.7925 96.6596 85.5762C96.1113 86.3614 95.5385 87.1278 94.9434 87.8783C94.3473 88.6273 93.7293 89.3579 93.0881 90.0699C92.4484 90.7808 91.7871 91.472 91.1041 92.1436C90.4211 92.8151 89.7182 93.4647 88.9954 94.0922C88.2726 94.7197 87.5311 95.3254 86.7713 95.908C86.0114 96.4907 85.2347 97.0492 84.4408 97.5848C83.6459 98.119 82.8366 98.6294 82.0119 99.1147C81.186 99.5997 80.346 100.06 79.4933 100.494C78.6394 100.928 77.7731 101.334 76.8954 101.715C76.0165 102.095 75.1278 102.449 74.2267 102.775C73.3269 103.102 72.4175 103.4 71.4999 103.671C70.5809 103.941 69.6549 104.184 68.7221 104.398C65.6588 105.102 62.5569 105.492 59.4149 105.57C56.2729 105.648 53.1548 105.41 50.0605 104.858ZM66.0596 14.1224C65.1541 13.964 64.2448 13.8341 63.3321 13.7314C62.4182 13.6284 61.5031 13.5543 60.5858 13.5076C59.6672 13.4606 58.7488 13.4428 57.8295 13.4526C56.9115 13.4626 55.9925 13.5002 55.0766 13.5661C54.1593 13.6318 53.2463 13.726 52.3349 13.8482C51.4237 13.9692 50.5179 14.1202 49.6167 14.2971C48.714 14.4751 47.8185 14.6795 46.9299 14.9128C46.0402 15.1446 45.1588 15.4044 44.2859 15.6908C43.413 15.9771 42.5486 16.2901 41.6956 16.6289C40.841 16.9688 39.9978 17.3344 39.1661 17.7246C38.3342 18.116 37.5164 18.5324 36.7101 18.9733C35.9039 19.4142 35.1117 19.8801 34.3339 20.3696C33.5561 20.8592 32.7939 21.3727 32.0488 21.909C31.3022 22.4464 30.573 23.0053 29.8611 23.5858C29.149 24.1676 28.4558 24.7699 27.7799 25.3938C27.1055 26.0166 26.4497 26.6613 25.8146 27.3241C25.1792 27.9881 24.5642 28.6717 23.9713 29.3723C23.3768 30.074 22.8058 30.7931 22.2554 31.5303C21.7064 32.2665 21.1798 33.0185 20.6753 33.7876C20.1721 34.557 19.6929 35.3399 19.2374 36.1388C18.7821 36.9364 18.3508 37.7475 17.9449 38.5724C17.539 39.3973 17.1589 40.2333 16.8043 41.0817C16.45 41.9289 16.1215 42.7872 15.8203 43.6557C15.5178 44.5239 15.243 45.3997 14.9943 46.2853C14.7471 47.1699 14.5264 48.0617 14.3324 48.9597C14.1384 49.8576 13.9723 50.7618 13.8347 51.6696C13.6969 52.5788 13.5862 53.4914 13.5042 54.4064C13.4222 55.3214 13.3675 56.2386 13.3418 57.157C13.3158 58.0766 13.3179 58.9946 13.3476 59.9134C13.3775 60.831 13.4366 61.7484 13.5224 62.6639C13.6097 63.5784 13.724 64.4897 13.8654 65.3978C14.008 66.3062 14.178 67.2088 14.3756 68.1057C14.5728 69.0039 14.798 69.8937 15.0507 70.7779C15.3021 71.6618 15.5814 72.5374 15.8875 73.4031C16.1934 74.2702 16.5249 75.1273 16.8834 75.9732C17.242 76.8191 17.6263 77.6538 18.0352 78.4769C18.4455 79.2989 18.8791 80.1091 19.3377 80.9053C19.7975 81.7017 20.28 82.4822 20.7874 83.2486C21.2949 84.0151 21.8249 84.7656 22.3776 85.5004C22.9305 86.2338 23.505 86.9499 24.1023 87.6489C24.6997 88.3479 25.3175 89.028 25.9559 89.6893C26.5942 90.3505 27.2521 90.9914 27.9293 91.612C28.6081 92.2314 29.3036 92.8314 30.0187 93.4096C30.7326 93.9877 31.465 94.5426 32.2131 95.0764C32.9627 95.6092 33.7258 96.118 34.506 96.6046C35.2863 97.0912 36.08 97.5538 36.8887 97.9912C37.6961 98.4284 38.5173 98.8403 39.3507 99.2279C40.1841 99.6155 41.0286 99.9773 41.8845 100.312C42.7402 100.648 43.6047 100.956 44.4791 101.239C45.3535 101.521 46.2365 101.777 47.1271 102.006C48.0163 102.234 48.9129 102.436 49.8159 102.608C50.7187 102.782 51.6252 102.927 52.5365 103.046C53.4478 103.164 54.3627 103.254 55.2788 103.315C56.1959 103.378 57.1142 103.411 58.0333 103.417C58.9527 103.422 59.8702 103.4 60.7889 103.349C61.7062 103.298 62.6217 103.22 63.5344 103.113C64.4469 103.006 65.3552 102.872 66.2605 102.709C67.1643 102.547 68.0639 102.356 68.9565 102.138C69.8489 101.922 70.7342 101.677 71.6125 101.405C72.4908 101.133 73.3591 100.835 74.2191 100.509C75.0789 100.185 75.9275 99.8334 76.7649 99.4561C77.6035 99.0791 78.4295 98.676 79.2427 98.2483C80.0559 97.8205 80.8561 97.3692 81.6411 96.8915C82.4271 96.4153 83.1975 95.9152 83.9523 95.3911C84.7084 94.8673 85.4461 94.3205 86.1679 93.751C86.8896 93.1827 87.5928 92.5914 88.2784 91.9799C88.963 91.3668 89.6297 90.7347 90.2766 90.0805C90.9232 89.4277 91.5482 88.7552 92.1541 88.0634C92.7597 87.3729 93.3425 86.6626 93.9044 85.9353C94.4663 85.208 95.0059 84.4649 95.5221 83.7044C96.0383 82.944 96.5306 82.1687 96.9991 81.3787C97.4679 80.5874 97.9123 79.7839 98.3317 78.9654C98.7521 78.1484 99.1456 77.3187 99.5136 76.4765C99.8828 75.6346 100.225 74.7826 100.542 73.9197C100.858 73.0565 101.148 72.1848 101.411 71.3042C101.673 70.4236 101.909 69.5357 102.118 68.6405C102.326 67.7451 102.508 66.8449 102.661 65.9385C102.814 65.032 102.94 64.1221 103.038 63.2086C103.134 62.2947 103.204 61.379 103.246 60.4608C103.288 59.5426 103.3 58.6246 103.285 57.7056C103.271 56.7869 103.228 55.8684 103.157 54.9528C103.086 54.0359 102.986 53.1232 102.859 52.2122C102.732 51.3027 102.577 50.3975 102.395 49.4967C102.212 48.5958 102.002 47.7021 101.765 46.814C101.528 45.926 101.262 45.0462 100.972 44.1739C100.68 43.3027 100.363 42.4402 100.018 41.5888C99.6741 40.7362 99.3042 39.8948 98.9082 39.0661C98.5125 38.2361 98.0918 37.4202 97.6466 36.6158C97.2011 35.8127 96.7307 35.0237 96.2369 34.2478C95.7428 33.4731 95.2248 32.7141 94.6842 31.9709C94.1435 31.2277 93.5814 30.5019 92.9963 29.7932C92.41 29.0842 91.8044 28.3944 91.1771 27.7232C90.5497 27.0519 89.9019 26.3996 89.2346 25.7676C88.5672 25.1356 87.8815 24.5255 87.1763 23.9357C86.4711 23.346 85.7491 22.7771 85.0094 22.2328C84.27 21.6873 83.5148 21.1641 82.7432 20.6657C80.2112 19.024 77.54 17.654 74.7317 16.5519C71.9231 15.4511 69.0316 14.6411 66.0596 14.1224Z" fill="white"/>
<path d="M53.3068 86.4495C52.7389 86.348 52.1753 86.2302 51.6147 86.0956C51.0542 85.9598 50.498 85.8075 49.9462 85.6375C49.3957 85.4677 48.8494 85.2814 48.31 85.0792C47.7707 84.8757 47.2367 84.6573 46.711 84.4218C46.1843 84.1848 45.6654 83.9333 45.1545 83.6661C44.6437 83.3988 44.1409 83.1158 43.6473 82.8186C43.1539 82.52 42.6696 82.2072 42.1959 81.8791C41.721 81.5507 41.2578 81.2086 40.8036 80.8522C40.3508 80.496 39.9081 80.1271 39.4774 79.743C39.0466 79.359 38.6271 78.9638 38.2208 78.5536C37.8143 78.1448 37.4205 77.7237 37.0407 77.2905C36.6597 76.857 36.2924 76.4128 35.939 75.9578C35.5858 75.5015 35.2461 75.0357 34.9216 74.5594C34.597 74.083 34.2861 73.5972 33.9914 73.101C33.6966 72.6061 33.4166 72.1019 33.1528 71.5886C32.8874 71.0764 32.6393 70.5567 32.4073 70.0279C32.175 69.5004 31.9585 68.9664 31.7591 68.4248C31.5597 67.8833 31.3771 67.3368 31.2113 66.7853C31.0456 66.2325 30.8965 65.676 30.7641 65.1145C30.6318 64.5531 30.5172 63.9881 30.4204 63.4197C30.3223 62.8511 30.2431 62.2805 30.1804 61.7062C30.1188 61.1334 30.0735 60.5582 30.0468 59.9823C30.0201 59.4064 30.0107 58.8296 30.0185 58.2532C30.0262 57.6768 30.0524 57.101 30.0957 56.5255C30.139 55.9501 30.2002 55.3778 30.2786 54.8059C30.3582 54.2342 30.4543 53.6668 30.5673 53.101C30.6803 52.5352 30.811 51.9738 30.9595 51.4169C31.1068 50.8585 31.2715 50.3071 31.4541 49.7589C31.6352 49.2117 31.8338 48.6702 32.0484 48.1356C32.2643 47.6012 32.4951 47.072 32.743 46.5511C32.9895 46.03 33.2531 45.5172 33.5313 45.0123C33.8106 44.5076 34.1043 44.012 34.4137 43.5244C34.7229 43.0382 35.0463 42.5611 35.3851 42.0946C35.7228 41.6266 36.0756 41.1705 36.4422 40.7261C36.8077 40.2802 37.187 39.846 37.5802 39.4234C37.9731 39.0022 38.3785 38.5924 38.7965 38.1941C39.2155 37.7973 39.6443 37.4128 40.0864 37.0425C40.5287 36.671 40.9803 36.3143 41.444 35.9716C41.9079 35.6277 42.3811 35.2986 42.8649 34.9846C43.3486 34.6706 43.8416 34.3715 44.3427 34.087C44.8447 33.804 45.3548 33.5356 45.8742 33.2821C46.392 33.0296 46.9177 32.7931 47.4511 32.5725C47.9832 32.3516 48.5228 32.148 49.0675 31.9611C49.6136 31.7731 50.1645 31.6032 50.7193 31.4485C51.2752 31.2953 51.8361 31.1588 52.4006 31.0389C52.9637 30.92 53.5317 30.8179 54.1019 30.7333C54.6722 30.6488 55.2446 30.5818 55.8192 30.5324C56.3938 30.4829 56.9693 30.4509 57.547 30.4364C58.1234 30.4217 58.6992 30.4254 59.2759 30.4464C59.8527 30.4675 60.4275 30.5067 61.0007 30.5628C61.5751 30.6191 62.1467 30.6921 62.7161 30.7846C63.2857 30.8758 63.8522 30.9849 64.4145 31.1105C64.978 31.2363 65.5358 31.3796 66.0894 31.5394C66.644 31.7007 67.1919 31.8779 67.7355 32.0716C68.2792 32.2653 68.8158 32.4763 69.3458 32.702C69.8757 32.9289 70.3987 33.1719 70.9137 33.4306C71.43 33.6895 71.9369 33.964 72.4344 34.2541C72.9333 34.5443 73.423 34.8488 73.9021 35.1686C74.3825 35.4887 74.8524 35.8228 75.3117 36.1722C75.7713 36.5203 76.2189 36.8835 76.6564 37.2594C77.0939 37.6354 77.5183 38.0249 77.9314 38.4269C78.3457 38.8292 78.7459 39.2435 79.1335 39.6702C79.521 40.0968 79.8958 40.5358 80.2568 40.9855C80.6178 41.4352 80.9649 41.8957 81.2985 42.3657C81.6306 42.8368 81.9489 43.3187 82.2526 43.8085C82.5548 44.2995 82.8436 44.7986 83.1162 45.3068C83.3889 45.815 83.6457 46.3309 83.8865 46.8547C84.1286 47.3786 84.3525 47.9086 84.5617 48.4466C84.7697 48.9844 84.9619 49.5287 85.1375 50.0779C85.313 50.6272 85.4705 51.1811 85.6125 51.7403C85.7533 52.2993 85.8773 52.8633 85.9837 53.4294C86.0914 53.9958 86.18 54.5654 86.2524 55.1374C86.3245 55.7108 86.3782 56.2835 86.4154 56.8599C86.4515 57.4348 86.4703 58.0106 86.4718 58.5873C86.4732 59.164 86.4575 59.7404 86.4234 60.3161C86.3893 60.8919 86.3381 61.4672 86.269 62.0394C86.1998 62.6117 86.1125 63.182 86.0084 63.7494C85.9047 64.3155 85.784 64.8799 85.6456 65.4399C85.5059 65.9997 85.3513 66.5541 85.1789 67.1042C85.005 67.6553 84.8165 68.1998 84.6104 68.7386C84.4043 69.2774 84.1825 69.8082 83.9432 70.3332C83.7051 70.8584 83.4511 71.3769 83.1802 71.8858C82.9106 72.3949 82.624 72.8957 82.3231 73.3873C82.022 73.8803 81.7071 74.3616 81.3764 74.8348C81.0459 75.3067 80.7012 75.7695 80.3427 76.2206C79.9827 76.6728 79.6103 77.1122 79.2253 77.5414C78.8391 77.9692 78.4405 78.3854 78.0293 78.7902C77.6181 79.195 77.1949 79.5858 76.7594 79.9638C76.3238 80.3419 75.8773 80.7074 75.4201 81.0578C74.9615 81.4093 74.4936 81.7459 74.0151 82.0674C73.5377 82.3905 73.05 82.6972 72.5529 82.989C72.0557 83.2821 71.5494 83.5591 71.0353 83.8201C70.5212 84.0812 69.9994 84.3263 69.471 84.5557C68.9414 84.785 68.4053 84.9985 67.8642 85.1953C67.3218 85.3919 66.7732 85.5715 66.2209 85.7345C65.6673 85.8974 65.1099 86.0437 64.5479 86.172C62.7027 86.5963 60.834 86.8314 58.9416 86.8785C57.0494 86.9243 55.1706 86.7821 53.3068 86.4495ZM62.8138 32.5326C62.2842 32.4392 61.7517 32.3625 61.2162 32.3024C60.682 32.2426 60.1449 32.1995 59.6076 32.1722C59.0703 32.1448 58.5316 32.1332 57.9936 32.1401C57.4545 32.1455 56.9178 32.1672 56.3808 32.2061C55.8438 32.2449 55.3079 32.2998 54.7744 32.3711C54.2409 32.4423 53.7109 32.5313 53.1822 32.635C52.6536 32.7388 52.1299 32.8594 51.6088 32.9949C51.0878 33.1304 50.5717 33.2827 50.0609 33.4505C49.5485 33.6193 49.0429 33.8025 48.5425 34.0012C48.042 34.1998 47.5483 34.4129 47.0609 34.643C46.5736 34.8717 46.0944 35.1151 45.6216 35.3742C45.1504 35.6322 44.6859 35.9047 44.2306 36.192C43.7754 36.4792 43.3284 36.7799 42.8922 37.0943C42.4546 37.4085 42.0281 37.7353 41.6112 38.0756C41.1942 38.4159 40.7882 38.7687 40.3919 39.1339C39.997 39.4992 39.613 39.8771 39.2403 40.2662C38.8678 40.654 38.5076 41.0546 38.1602 41.4653C37.8128 41.8761 37.4781 42.297 37.1559 42.7294C36.834 43.1605 36.525 43.6006 36.2301 44.051C35.9351 44.5014 35.6545 44.9609 35.3883 45.4283C35.1208 45.8955 34.8691 46.3707 34.6319 46.8538C34.3933 47.3366 34.1706 47.8275 33.9628 48.3237C33.7563 48.8202 33.5632 49.3229 33.3863 49.8312C33.2094 50.3394 33.0487 50.8532 32.903 51.3722C32.7575 51.89 32.6284 52.412 32.5158 52.9382C32.4017 53.4654 32.3045 53.9943 32.2239 54.5262C32.1434 55.058 32.0782 55.5926 32.0299 56.1288C31.9816 56.665 31.9505 57.2016 31.9349 57.7397C31.9192 58.279 31.921 58.8161 31.9384 59.3546C31.9561 59.8919 31.9908 60.4295 32.0404 60.9658C32.0915 61.5011 32.1586 62.0352 32.242 62.5668C32.3254 63.0985 32.4251 63.6278 32.5401 64.1531C32.6563 64.6787 32.7878 65.2003 32.9358 65.7183C33.0838 66.2362 33.2472 66.7489 33.4261 67.2565C33.605 67.764 33.7994 68.2663 34.0095 68.7621C34.2197 69.2567 34.4442 69.7458 34.6844 70.2284C34.9247 70.7098 35.1782 71.1842 35.4477 71.6508C35.7171 72.1174 36.0001 72.5746 36.2964 73.0235C36.594 73.4726 36.904 73.912 37.2275 74.3419C37.5522 74.772 37.8882 75.1909 38.2378 75.6003C38.5874 76.0096 38.9495 76.408 39.3242 76.7953C39.6975 77.1825 40.0834 77.5586 40.4807 77.9222C40.8767 78.2855 41.2855 78.6366 41.7032 78.9747C42.1222 79.313 42.5514 79.6385 42.9894 79.9511C43.4275 80.2637 43.8759 80.5623 44.3322 80.8463C44.7896 81.1319 45.255 81.4017 45.728 81.6583C46.2011 81.9149 46.6822 82.1558 47.1696 82.3832C47.6586 82.6096 48.1528 82.821 48.6536 83.0177C49.1557 83.2147 49.662 83.3952 50.1748 83.561C50.6864 83.7265 51.2035 83.8759 51.7246 84.0101C52.2456 84.1443 52.7709 84.262 53.3005 84.3633C53.8287 84.4644 54.3596 84.5501 54.8935 84.6191C55.4274 84.6881 55.963 84.7402 56.4999 84.7767C57.0369 84.8133 57.5755 84.8329 58.113 84.8364C58.6518 84.8402 59.1897 84.8266 59.7277 84.7972C60.2644 84.7675 60.8003 84.7206 61.3347 84.6588C61.8707 84.596 62.403 84.5166 62.9327 84.4222C63.4625 84.3266 63.9885 84.2157 64.5122 84.0873C65.0345 83.9599 65.5528 83.8173 66.0674 83.6581C66.582 83.499 67.0901 83.3241 67.5946 83.1328C68.0975 82.9425 68.5952 82.7367 69.0862 82.5165C69.5762 82.2949 70.0605 82.0603 70.537 81.8098C71.0137 81.558 71.482 81.2942 71.9425 81.0144C72.4016 80.7358 72.8538 80.4427 73.2954 80.1358C73.7384 79.8278 74.1702 79.5086 74.5927 79.1745C75.0162 78.842 75.4277 78.4954 75.8295 78.1366C76.2312 77.7777 76.6204 77.4074 76.9999 77.0247C77.3782 76.6419 77.7451 76.2478 78.0994 75.8436C78.4538 75.438 78.7955 75.0223 79.1245 74.5964C79.4547 74.1707 79.7696 73.7344 80.0729 73.2894C80.3748 72.8442 80.6638 72.39 80.9385 71.9268C81.2119 71.4633 81.472 70.9935 81.7177 70.5146C81.9637 70.0344 82.1947 69.5489 82.4113 69.0556C82.6263 68.5633 82.8269 68.0632 83.0125 67.5578C83.1982 67.0524 83.3676 66.5415 83.5218 66.0266C83.675 65.5102 83.8143 64.9901 83.9359 64.4655C84.0573 63.9421 84.1637 63.4135 84.2533 62.8832C84.3441 62.3532 84.417 61.82 84.4744 61.2841C84.5317 60.7494 84.572 60.2131 84.5968 59.6754C84.6202 59.1374 84.6279 58.5993 84.6196 58.0611C84.6101 57.5226 84.5858 56.9855 84.5444 56.448C84.5028 55.9118 84.4438 55.3765 84.3698 54.8438C84.2961 54.3099 84.2045 53.7794 84.0977 53.2529C83.9911 52.7251 83.868 52.2009 83.7284 51.6805C83.5901 51.1603 83.435 50.6451 83.2644 50.135C83.0941 49.6237 82.9069 49.1187 82.7052 48.6204C82.5037 48.1208 82.2876 47.6292 82.0561 47.1428C81.8245 46.6564 81.577 46.1777 81.3162 45.7073C81.0554 45.2369 80.7799 44.7745 80.4911 44.3203C80.2008 43.8672 79.8985 43.4225 79.5812 42.9871C79.2653 42.552 78.9345 42.1261 78.5924 41.7114C78.2491 41.2965 77.8947 40.8916 77.5264 40.4988C77.1595 40.1048 76.7799 39.7232 76.3891 39.3529C75.9982 38.9825 75.5959 38.6246 75.1834 38.2795C74.771 37.9344 74.347 37.6019 73.9142 37.2823C73.4813 36.9627 73.038 36.6571 72.5872 36.3647C71.1039 35.4038 69.5387 34.6002 67.8938 33.9558C66.2479 33.31 64.5558 32.8358 62.8138 32.5326Z" fill="white"/>
<path d="M34.1597 34.4433C34.2087 34.8102 34.1427 35.2296 33.9602 35.7025C33.7637 36.202 33.4882 36.6545 33.135 37.0603C32.5669 37.7257 31.9102 38.0832 31.1634 38.134C30.4167 38.1848 29.6685 37.914 28.9186 37.323L28.4751 36.9513C27.9752 36.5247 27.6134 36.0642 27.3914 35.5689C27.1675 35.0918 27.0966 34.5941 27.1764 34.074C27.2674 33.5427 27.4912 33.0757 27.8491 32.6734C28.3891 32.0401 28.9536 31.6729 29.5418 31.5691C30.13 31.4652 30.7368 31.6304 31.3613 32.0631L30.3548 33.2422C30.0358 33.0418 29.7552 32.9606 29.5149 32.9962C29.2757 33.0334 29.0463 33.1794 28.8279 33.4357C28.6999 33.5771 28.6155 33.7407 28.5771 33.9283C28.5387 34.1159 28.5499 34.3003 28.612 34.4805C28.7297 34.8701 29.0288 35.2732 29.5108 35.6888L29.819 35.9507C30.3259 36.3825 30.781 36.6214 31.1832 36.6646C31.5865 36.7093 31.946 36.5452 32.2642 36.1729C32.536 35.8533 32.6679 35.5553 32.6585 35.2786L31.8689 34.6052L31.1434 35.4584L30.3022 34.7402L32.0726 32.6632L34.1597 34.4433Z" fill="white"/>
<path d="M37.827 24.2766L40.3042 27.8787C40.5851 28.2879 40.7412 28.7001 40.7717 29.1194C40.8047 29.547 40.7119 29.9457 40.4933 30.3158C40.2754 30.6965 39.9453 31.0389 39.5017 31.3428C38.8308 31.8036 38.1838 31.9936 37.5584 31.9111C36.9343 31.8288 36.4103 31.4865 35.9858 30.8868L33.4906 27.259L34.8252 26.3414L37.3394 29.9963C37.768 30.5875 38.255 30.6972 38.7997 30.3226C39.0738 30.1329 39.23 29.9145 39.267 29.6672C39.3042 29.4186 39.2053 29.1248 38.9719 28.7835L36.5 25.189L37.827 24.2766Z" fill="white"/>
<path d="M47.7228 25.804L45.6445 26.5455L45.7012 27.8512L44.0815 28.429L44.142 21.3145L45.5671 20.8055L50.139 26.2657L48.5091 26.8483L47.7228 25.804ZM45.5895 25.2453L46.9412 24.7631L45.4838 22.823L45.5895 25.2453Z" fill="white"/>
<path d="M55.2862 23.1854L54.4173 23.2543L54.6063 25.6093L53.0011 25.7375L52.4667 19.08L55.0874 18.8691C55.8773 18.8061 56.5083 18.9319 56.9816 19.2467C57.455 19.5616 57.7174 20.0376 57.7686 20.6773C57.8045 21.1411 57.7422 21.532 57.5788 21.851C57.4166 22.1714 57.1428 22.4418 56.7575 22.6621L58.3644 25.2394L58.3695 25.3077L56.6501 25.4461L55.2862 23.1854ZM54.3176 22.0203L55.3328 21.9388C55.6388 21.9135 55.861 21.8151 56.0024 21.6431C56.1441 21.4697 56.2032 21.2395 56.1798 20.9524C56.1563 20.6654 56.0601 20.4461 55.8924 20.2949C55.7235 20.1435 55.4886 20.0809 55.1869 20.1044L54.1717 20.1858L54.3176 22.0203Z" fill="white"/>
<path d="M65.4923 24.9564L63.3262 24.5388L62.7106 25.6902L61.0215 25.3646L64.6941 19.2705L66.1798 19.5576L67.3379 26.5842L65.64 26.2557L65.4923 24.9564ZM63.9398 23.3909L65.3501 23.6634L65.0824 21.2521L63.9398 23.3909Z" fill="white"/>
<path d="M75.1193 29.9201L73.6763 29.2254L73.345 24.4535L71.5435 28.1988L70.092 27.5L72.9884 21.4818L74.4401 22.1794L74.7665 26.9492L76.5692 23.204L78.0158 23.9007L75.1193 29.9201Z" fill="white"/>
<path d="M85.3854 31.0395L83.8619 29.7369L80.3278 33.8683L79.1041 32.8222L82.6372 28.6893L81.1413 27.4101L81.949 26.4657L86.1934 30.0938L85.3854 31.0395Z" fill="white"/>
<path d="M88.6267 39.244L87.1505 37.1856L85.8533 38.1164L87.5957 40.547L86.5892 41.2686L83.9073 37.53L89.3365 33.6362L92.0234 37.3837L91.0124 38.1085L89.2647 35.6703L88.1193 36.4904L89.5954 38.5488L88.6267 39.244Z" fill="white"/>
<path d="M92.2649 46.7659L91.3016 44.4237L89.8245 45.0319L90.9644 47.7979L89.8184 48.2688L88.0669 44.0147L94.243 41.4717L95.9994 45.7347L94.8491 46.2075L93.7067 43.4331L92.4048 43.9704L93.3685 46.3113L92.2649 46.7659Z" fill="white"/>
<path d="M23.6906 47.0131L24.0606 49.646C24.0748 49.753 24.1206 49.8456 24.1967 49.9239C24.2713 50.0031 24.3634 50.0511 24.4698 50.0698L27.0883 50.5316C27.1947 50.5503 27.2865 50.5996 27.3613 50.6775C27.4375 50.7557 27.4833 50.8484 27.4974 50.9554C27.5127 51.0639 27.4948 51.1652 27.4434 51.2619C27.3935 51.3575 27.3187 51.429 27.2205 51.4764L24.8321 52.6419C24.7338 52.6893 24.6588 52.7621 24.6089 52.8577C24.5577 52.9531 24.5396 53.0557 24.5551 53.1629L24.9239 55.7956C24.9393 55.9028 24.9212 56.0053 24.8713 56.101C24.8201 56.1964 24.7452 56.2691 24.6482 56.3168C24.5499 56.3643 24.4483 56.3781 24.3406 56.3591C24.2341 56.3403 24.1421 56.2924 24.0673 56.2144L22.2202 54.3021C22.1441 54.2239 22.0536 54.1749 21.9459 54.1559C21.8395 54.1371 21.7364 54.152 21.6394 54.1997L19.2497 55.3649C19.1514 55.4124 19.0498 55.4262 18.9421 55.4072C18.8357 55.3884 18.7436 55.3405 18.6688 55.2625C18.5927 55.1843 18.5484 55.0905 18.5329 54.9834C18.5174 54.8762 18.5355 54.7736 18.5867 54.6782L19.8349 52.3306C19.8861 52.2352 19.9042 52.1326 19.8888 52.0254C19.8733 51.9182 19.8277 51.8243 19.7529 51.7463L17.9058 49.834C17.831 49.756 17.7852 49.6633 17.7699 49.5549C17.7545 49.4477 17.7723 49.3464 17.8238 49.2497C17.875 49.1542 17.9484 49.0826 18.0469 49.0338C18.1452 48.9864 18.2468 48.9726 18.3545 48.9916L20.9717 49.453C21.0794 49.472 21.1812 49.4569 21.2795 49.4095C21.3765 49.3618 21.4512 49.2903 21.5024 49.1949L22.7507 46.8474C22.8006 46.7517 22.8755 46.679 22.9725 46.6313C23.0708 46.5838 23.1739 46.569 23.2804 46.5877C23.3881 46.6067 23.4786 46.6558 23.5547 46.734C23.6295 46.8119 23.6751 46.9059 23.6906 47.0131Z" fill="white"/>
<path d="M95.9389 59.7529L96.3089 62.3858C96.3244 62.4929 96.3689 62.5854 96.445 62.6636C96.5196 62.7429 96.6117 62.7908 96.7181 62.8096L99.3366 63.2713C99.4443 63.2903 99.5348 63.3393 99.6109 63.4175C99.6857 63.4955 99.7315 63.5882 99.747 63.6954C99.7623 63.8038 99.7444 63.9051 99.693 64.0019C99.6418 64.0973 99.567 64.1687 99.47 64.2164L97.0804 65.3816C96.9821 65.4291 96.9084 65.502 96.8572 65.5975C96.806 65.6929 96.7879 65.7955 96.8034 65.9027L97.1734 68.5356C97.1876 68.6425 97.1695 68.7451 97.1196 68.8407C97.0684 68.9362 96.9934 69.0089 96.8964 69.0566C96.7982 69.104 96.6966 69.1178 96.5889 69.0989C96.4824 69.0801 96.3904 69.0321 96.3156 68.9541L94.4685 67.0419C94.3924 66.9637 94.3019 66.9146 94.1942 66.8956C94.0877 66.8769 93.9846 66.8918 93.8876 66.9394L91.498 68.1047C91.401 68.1524 91.2981 68.166 91.1917 68.1472C91.0839 68.1282 90.9932 68.0805 90.9171 68.0023C90.8422 67.9243 90.7967 67.8303 90.7812 67.7231C90.7657 67.6159 90.7838 67.5133 90.835 67.4179L92.0832 65.0704C92.1344 64.9749 92.1525 64.8724 92.137 64.7652C92.1216 64.658 92.0773 64.5642 92.0012 64.486L90.1541 62.5738C90.0793 62.4958 90.0335 62.4031 90.0182 62.2946C90.004 62.1877 90.0219 62.0864 90.072 61.9894C90.1233 61.894 90.198 61.8226 90.2952 61.7736C90.3935 61.7261 90.4951 61.7123 90.6028 61.7313L93.2213 62.193C93.3277 62.2118 93.4308 62.1969 93.5278 62.1492C93.6261 62.1018 93.6995 62.0301 93.7507 61.9347L94.999 59.5871C95.0504 59.4904 95.1251 59.419 95.2221 59.3713C95.3204 59.3238 95.422 59.31 95.5297 59.329C95.6361 59.3478 95.7282 59.3957 95.803 59.4737C95.8791 59.5519 95.9234 59.6457 95.9389 59.7529Z" fill="white"/>
<path d="M45.2854 55.9961L42.708 55.5417L44.1548 47.3362L41.4931 47.6298L41.8372 45.6781L47.0071 44.8524L47.2443 44.8942L45.2854 55.9961Z" fill="white"/>
<path d="M57.1441 53.4091C56.8796 54.9094 56.3384 56.0066 55.5219 56.7009C54.704 57.3949 53.6834 57.6341 52.4576 57.4179C51.2227 57.2002 50.3395 56.6227 49.8067 55.6852C49.2752 54.7479 49.1402 53.5342 49.4029 52.0442L49.7606 50.0155C50.0249 48.5165 50.5661 47.4194 51.3829 46.7238C52.2007 46.0298 53.2239 45.791 54.4549 46.0081C55.6846 46.2249 56.5665 46.8022 57.098 47.7395C57.6295 48.6767 57.7641 49.8931 57.5005 51.3882L57.1441 53.4091ZM54.9887 50.5989C55.1294 49.8013 55.1306 49.1868 54.9923 48.7565C54.8529 48.3247 54.5567 48.0701 54.1053 47.9905C53.6629 47.9125 53.3087 48.0392 53.043 48.3691C52.7785 48.6993 52.5716 49.2353 52.4268 49.974L51.9264 52.8117C51.7804 53.6401 51.7773 54.2649 51.9174 54.685C52.0586 55.1065 52.3557 55.3559 52.8071 55.4355C53.2444 55.5126 53.6003 55.3837 53.8753 55.0461C54.1489 54.7096 54.3599 54.1425 54.5046 53.3443L54.9887 50.5989Z" fill="white"/>
<path d="M66.1878 55.0036C65.9232 56.5039 65.3821 57.6011 64.5655 58.2954C63.7477 58.9894 62.7271 59.2286 61.5025 59.0127C60.2663 58.7947 59.3832 58.2172 58.8516 57.2799C58.3188 56.3424 58.1851 55.1289 58.4478 53.6389L58.8055 51.6103C59.0698 50.1113 59.6097 49.0139 60.4278 48.3185C61.2444 47.6243 62.2675 47.3855 63.4985 47.6026C64.7282 47.8194 65.6101 48.3967 66.1417 49.334C66.6732 50.2712 66.8078 51.4876 66.5441 52.9827L66.1878 55.0036ZM64.0336 52.1937C64.1743 51.3961 64.1743 50.7813 64.0359 50.351C63.8966 49.9192 63.6016 49.6649 63.149 49.585C62.7066 49.507 62.3524 49.6337 62.0866 49.9636C61.8221 50.2938 61.6165 50.83 61.4704 51.5685L60.9701 54.4062C60.824 55.2346 60.8209 55.8594 60.9611 56.2795C61.1022 56.701 61.3994 56.9504 61.852 57.0302C62.2893 57.1073 62.6439 56.9782 62.919 56.6406C63.1925 56.3041 63.4036 55.737 63.5495 54.9391L64.0336 52.1937Z" fill="white"/>
<path d="M68.3114 50.8103C68.4326 50.123 68.7534 49.6083 69.2753 49.2654C69.7972 48.9224 70.4346 48.8167 71.1874 48.9494C71.949 49.0837 72.5146 49.4002 72.8831 49.8976C73.2516 50.3949 73.3732 51.0021 73.2456 51.7186L73.1488 52.2675C73.0276 52.9548 72.7098 53.4673 72.1939 53.806C71.6781 54.1448 71.0437 54.2484 70.2909 54.1157C69.5446 53.9841 68.9799 53.6703 68.5977 53.1759C68.2155 52.6814 68.0887 52.0733 68.216 51.3514L68.3114 50.8103ZM69.8625 51.6867C69.8095 51.9272 69.8448 52.1543 69.9715 52.3657C70.09 52.5558 70.2781 52.6736 70.5372 52.7193C71.0719 52.8135 71.3983 52.5221 71.5177 51.845L71.5977 51.3911C71.6494 51.1503 71.6171 50.9211 71.4978 50.7057C71.3853 50.5114 71.2002 50.3915 70.9411 50.3458C70.7059 50.2924 70.4927 50.3395 70.3027 50.4871C70.1263 50.6252 70.0126 50.8352 69.9626 51.1186L69.8625 51.6867ZM69.8504 59.4708L68.759 58.657L75.7122 50.9345L76.8023 51.7482L69.8504 59.4708ZM72.487 57.9855C72.6088 57.2943 72.9309 56.78 73.4545 56.4426C73.978 56.1052 74.6137 56.0018 75.3613 56.1336C76.1192 56.2672 76.6842 56.5797 77.0591 57.0702C77.434 57.5608 77.5572 58.1748 77.4271 58.9121L77.3331 59.4456C77.2112 60.1367 76.8917 60.6516 76.3758 60.9903C75.8597 61.3303 75.223 61.4322 74.4664 61.2988C73.7188 61.167 73.1538 60.8545 72.7719 60.3588C72.3897 59.8643 72.2629 59.2563 72.3902 58.5343L72.487 57.9855ZM74.0301 58.8618C73.9863 59.1027 74.0305 59.3247 74.1649 59.5295C74.2892 59.7392 74.4709 59.8638 74.7124 59.9037C75.2048 59.9905 75.5125 59.8055 75.6356 59.3472L75.7807 58.5689C75.828 58.3009 75.7931 58.0713 75.6746 57.8812C75.6086 57.7902 75.5282 57.7139 75.4331 57.6535C75.3393 57.5933 75.2354 57.5525 75.1256 57.5305C75.0155 57.5098 74.9044 57.51 74.7946 57.533C74.6837 57.5544 74.5812 57.5959 74.4871 57.6573C74.3125 57.7851 74.1964 57.9789 74.1398 58.2399L74.0301 58.8618Z" fill="white"/>
<path d="M39.6672 62.7676L40.3153 66.223L42.1035 63.1972L43.0537 63.3647L42.3083 67.5925L41.5761 67.4634L41.8218 66.0695L42.2237 64.2179L40.4002 67.2561L39.8744 67.1633L39.2021 63.6878L38.9469 65.5626L38.7011 66.9565L37.9689 66.8274L38.7144 62.5996L39.6672 62.7676Z" fill="white"/>
<path d="M46.9038 66.3363C46.8446 66.7172 46.7098 67.0689 46.4972 67.3898C46.3118 67.6691 46.0643 67.8727 45.7562 68.0008C45.6019 68.0583 45.4434 68.0951 45.2808 68.11C45.1179 68.1263 44.9553 68.1188 44.7937 68.0903C44.6321 68.0618 44.478 68.0135 44.3293 67.9423C44.1816 67.8726 44.0452 67.7838 43.9199 67.677C43.6726 67.4523 43.5082 67.1774 43.4254 66.8521C43.3315 66.4851 43.3202 66.1143 43.3924 65.7423L43.4345 65.5037C43.4939 65.1215 43.631 64.7715 43.8464 64.4499C44.0331 64.1708 44.281 63.9646 44.5922 63.8344C44.7449 63.778 44.9035 63.7412 45.0661 63.7262C45.2287 63.7113 45.3903 63.7173 45.5518 63.7458C45.7136 63.773 45.8675 63.8226 46.0152 63.8922C46.1644 63.9609 46.2995 64.0495 46.425 64.1549C46.671 64.3794 46.8354 64.6543 46.9159 64.9779C47.0074 65.351 47.0183 65.7245 46.9452 66.1016L46.9038 66.3363ZM46.2079 65.9862C46.2904 65.5181 46.2653 65.1435 46.1324 64.8622C46.099 64.7968 46.0582 64.7354 46.0112 64.6796C45.9632 64.6222 45.9097 64.5731 45.8502 64.5282C45.7917 64.4848 45.7281 64.4485 45.6605 64.4194C45.5929 64.3903 45.5227 64.3686 45.4496 64.3558C45.3765 64.3429 45.3033 64.3379 45.2298 64.3421C45.1564 64.3464 45.0841 64.3587 45.0128 64.3806C44.9431 64.4013 44.8758 64.4304 44.8112 64.4666C44.7467 64.5029 44.6887 64.5468 44.6336 64.5966C44.4115 64.814 44.2585 65.1493 44.1744 65.6038L44.1315 65.8474C44.0494 66.3129 44.0758 66.6878 44.2121 66.9723C44.2748 67.1116 44.3668 67.227 44.4897 67.3174C44.6111 67.4089 44.748 67.4648 44.8989 67.4861C45.2234 67.5433 45.4964 67.4645 45.7146 67.2465C45.934 67.03 46.0849 66.6837 46.169 66.2067L46.2079 65.9862Z" fill="white"/>
<path d="M50.6356 69.0612L49.9022 68.9319L48.546 65.6002L48.0172 68.5995L47.2824 68.4699L48.0279 64.2422L48.7626 64.3717L50.1219 67.7159L50.6528 64.705L51.3811 64.8334L50.6356 69.0612Z" fill="white"/>
<path d="M54.3092 67.7625L52.5717 67.4561L52.3433 68.7512L54.3732 69.1091L54.2687 69.7016L51.5041 69.2141L52.2496 64.9863L54.9937 65.4702L54.8895 66.0613L52.8801 65.707L52.6741 66.8752L54.4116 67.1816L54.3092 67.7625Z" fill="white"/>
<path d="M56.6383 67.8252L57.9648 65.9939L58.7777 66.1372L56.8898 68.5584L56.6153 70.1151L55.878 69.9851L56.1525 68.4284L55.2027 65.5068L56.0195 65.6509L56.6383 67.8252Z" fill="white"/>
<path d="M59.9719 70.7072L60.7173 66.4795L62.1663 66.735C62.6446 66.8193 62.9921 66.9784 63.2069 67.2146C63.4233 67.4498 63.4985 67.7579 63.4303 68.1372C63.3992 68.3288 63.3174 68.4928 63.1816 68.6328C63.0358 68.7777 62.8619 68.8713 62.6593 68.9109C62.869 69.0035 63.0256 69.1501 63.1284 69.3546C63.2266 69.5623 63.2531 69.7799 63.2069 70.0044C63.1368 70.4019 62.956 70.6847 62.6633 70.8526C62.3706 71.0205 61.9876 71.0627 61.5132 70.979L59.9719 70.7072ZM61.1383 68.3889L61.8576 68.5157C62.0872 68.5562 62.2744 68.5363 62.421 68.4551C62.5796 68.3654 62.6697 68.2292 62.6922 68.0494C62.729 67.8404 62.6954 67.6784 62.5927 67.5638C62.4897 67.4505 62.3132 67.3717 62.0619 67.3274L61.3476 67.2015L61.1383 68.3889ZM61.0431 68.9287L60.8111 70.2444L61.6266 70.3882C61.8574 70.4289 62.0469 70.4041 62.1966 70.3128C62.3587 70.2105 62.4521 70.063 62.4751 69.8727C62.5522 69.4355 62.3672 69.1728 61.9202 69.0834L61.0431 68.9287Z" fill="white"/>
<path d="M66.2637 70.801L64.6262 70.5123L64.1101 71.4367L63.3459 71.302L65.6891 67.3559L66.3482 67.4722L67.2031 71.9821L66.4362 71.8469L66.2637 70.801ZM64.9371 69.9563L66.1617 70.1722L65.8591 68.3114L64.9371 69.9563Z" fill="white"/>
<path d="M71.0901 71.2488C70.9671 71.6912 70.7383 72.0145 70.4039 72.216C70.0683 72.4173 69.6602 72.4749 69.178 72.3899C68.8576 72.34 68.5754 72.2083 68.3304 71.9932C68.0943 71.7797 67.9356 71.5177 67.8567 71.2076C67.7667 70.8559 67.755 70.5021 67.8194 70.1446L67.889 69.7496C67.946 69.3815 68.0798 69.0429 68.2878 68.7331C68.4708 68.46 68.7145 68.2623 69.0195 68.1376C69.3317 68.0168 69.6515 67.9872 69.9797 68.0531C70.4452 68.1351 70.7988 68.327 71.0389 68.6298C71.279 68.9327 71.3814 69.3196 71.3459 69.7906L70.615 69.6618C70.634 69.3517 70.5841 69.1169 70.4655 68.9571C70.347 68.7974 70.1497 68.6939 69.8753 68.6455C69.556 68.5892 69.2892 68.6625 69.0775 68.8658C68.8645 69.0688 68.717 69.3958 68.6335 69.8465L68.5675 70.221C68.4868 70.6787 68.5061 71.0418 68.6279 71.3105C68.7496 71.5805 68.967 71.7418 69.2825 71.7975C69.571 71.8483 69.799 71.8224 69.968 71.7187C70.1358 71.6147 70.2663 71.4143 70.3579 71.1197L71.0901 71.2488Z" fill="white"/>
<path d="M73.0394 71.1286L72.4703 71.5518L72.2379 72.87L71.5031 72.7404L72.2486 68.5127L72.9833 68.6423L72.6338 70.6247L73.1287 70.195L74.6273 68.9321L75.5159 69.0888L73.615 70.684L74.8602 73.3324L73.9895 73.1789L73.0394 71.1286Z" fill="white"/>
<path d="M75.9747 65.6193L37.6479 58.8613C37.5248 58.8396 37.4109 58.7957 37.3065 58.7283C37.2007 58.6608 37.1124 58.5764 37.0417 58.4754C36.9699 58.3728 36.9208 58.261 36.8935 58.1385C36.8672 58.0176 36.8637 57.8953 36.8854 57.7722C36.9068 57.6504 36.952 57.5367 37.0183 57.4307C37.0856 57.3262 37.17 57.238 37.2725 57.1662C37.3738 57.0941 37.4856 57.0451 37.6079 57.019C37.7291 56.9915 37.8511 56.9892 37.9742 57.0109L76.2997 63.7687C76.4228 63.7904 76.5367 63.8343 76.6424 63.9019C76.7471 63.9679 76.8354 64.0522 76.9072 64.1548C76.9777 64.2572 77.0281 64.3692 77.0543 64.4901C77.0816 64.6126 77.0839 64.7347 77.0624 64.8565C77.0407 64.9796 76.9969 65.0935 76.9295 65.198C76.8632 65.304 76.7776 65.392 76.6763 65.464C76.574 65.5346 76.4622 65.5836 76.341 65.6112C76.2185 65.6385 76.0965 65.6408 75.9734 65.6191L75.9747 65.6193Z" fill="white"/>
<path d="M55.9143 73.505L56.1856 75.4383C56.1987 75.5292 56.2365 75.6072 56.3003 75.6727C56.3639 75.7394 56.4414 75.7796 56.5312 75.7954L58.4534 76.1343C58.5444 76.1504 58.6204 76.1915 58.6843 76.257C58.7481 76.3225 58.7857 76.4018 58.7989 76.4914C58.812 76.5823 58.7969 76.6682 58.7535 76.7492C58.7101 76.8301 58.6479 76.8905 58.5656 76.9302L56.8109 77.7857C56.7283 77.8266 56.6661 77.887 56.6228 77.968C56.5809 78.0479 56.5658 78.1338 56.5775 78.2244L56.8501 80.1579C56.8619 80.2486 56.8467 80.3345 56.8047 80.4157C56.7613 80.4966 56.6991 80.557 56.6167 80.5967C56.5343 80.6364 56.4475 80.6489 56.3578 80.633C56.268 80.6172 56.1907 80.5758 56.1269 80.5103L54.7706 79.1064C54.707 79.0396 54.6308 78.9997 54.541 78.9839C54.45 78.9679 54.3647 78.9793 54.2821 79.0202L52.5274 79.8757C52.4451 79.9154 52.3583 79.9278 52.2685 79.912C52.1787 79.8962 52.1014 79.8548 52.0376 79.7893C51.9738 79.7238 51.936 79.6458 51.9229 79.5549C51.9111 79.4642 51.9263 79.3783 51.9684 79.2971L52.8858 77.5735C52.9291 77.4926 52.9443 77.4066 52.931 77.317C52.9179 77.2261 52.8801 77.1481 52.8166 77.0813L51.4603 75.6774C51.3965 75.6119 51.3587 75.5338 51.3456 75.443C51.3326 75.3521 51.3477 75.2662 51.3911 75.1852C51.4342 75.1056 51.4967 75.0438 51.579 75.0042C51.6614 74.9645 51.7469 74.9518 51.838 74.9678L53.7601 75.3068C53.8499 75.3226 53.9365 75.3114 54.0191 75.2705C54.1014 75.2308 54.1636 75.1703 54.207 75.0894L55.1231 73.3655C55.1665 73.2846 55.2287 73.2242 55.3111 73.1845C55.3937 73.1435 55.479 73.1321 55.57 73.1482C55.6598 73.164 55.736 73.2039 55.7996 73.2706C55.8635 73.3361 55.9013 73.4141 55.9143 73.505Z" fill="white"/>
<path d="M62.3867 36.8003L62.658 38.7335C62.6711 38.8244 62.7089 38.9025 62.7727 38.9679C62.8365 39.0334 62.9139 39.0748 63.0036 39.0906L64.9258 39.4295C65.0168 39.4456 65.0929 39.4868 65.1567 39.5522C65.2205 39.6177 65.2583 39.6958 65.2714 39.7866C65.2844 39.8775 65.2693 39.9634 65.2259 40.0444C65.1828 40.124 65.1203 40.1858 65.038 40.2254L63.2834 41.0809C63.2008 41.1218 63.1385 41.1823 63.0954 41.2619C63.0533 41.3431 63.0382 41.429 63.05 41.5197L63.3225 43.4532C63.3343 43.5438 63.3192 43.6297 63.2771 43.7109C63.2339 43.7906 63.1717 43.851 63.0891 43.8919C63.0068 43.9316 62.92 43.9441 62.8302 43.9283C62.7404 43.9124 62.6631 43.871 62.5993 43.8056L61.2433 42.4003C61.1795 42.3349 61.1034 42.2937 61.0137 42.2779C60.9226 42.2618 60.8371 42.2745 60.7547 42.3142L58.9999 43.1709C58.9175 43.2106 58.8307 43.223 58.7409 43.2072C58.6512 43.1914 58.5739 43.15 58.51 43.0845C58.4464 43.0178 58.4086 42.9397 58.3954 42.8501C58.3836 42.7595 58.3987 42.6735 58.4408 42.5924L59.3582 40.8687C59.4016 40.7878 59.4167 40.7019 59.4037 40.611C59.3904 40.5214 59.3526 40.4433 59.289 40.3766L57.9327 38.9726C57.8689 38.9071 57.8314 38.8278 57.8181 38.7382C57.805 38.6473 57.8202 38.5614 57.8635 38.4804C57.9069 38.3995 57.9691 38.3391 58.0515 38.2994C58.1338 38.2597 58.2193 38.247 58.3104 38.2631L60.2326 38.602C60.3223 38.6178 60.4091 38.6054 60.4915 38.5657C60.5739 38.526 60.6361 38.4656 60.6794 38.3846L61.5956 36.6608C61.6389 36.5798 61.7011 36.5194 61.7837 36.4784C61.8661 36.4387 61.9516 36.426 62.0427 36.4421C62.1324 36.4579 62.2085 36.4991 62.2723 36.5646C62.3359 36.6313 62.3737 36.7094 62.3867 36.8003Z" fill="white"/>
<path d="M70.978 40.966L71.1474 42.1726C71.1561 42.2283 71.1792 42.2773 71.2194 42.3188C71.2584 42.3601 71.307 42.3845 71.3634 42.3945L72.5637 42.6061C72.6188 42.6158 72.6672 42.6415 72.7075 42.683C72.7465 42.7243 72.7708 42.7735 72.7782 42.829C72.7867 42.886 72.7772 42.9399 72.7497 42.9906C72.7238 43.0402 72.6841 43.0782 72.6333 43.1036L71.5382 43.6377C71.4862 43.6629 71.448 43.6998 71.4205 43.7505C71.3943 43.8014 71.3848 43.8553 71.3922 43.9108L71.5616 45.1174C71.5701 45.1744 71.5606 45.2282 71.5333 45.2777C71.5072 45.3286 71.4674 45.3665 71.4167 45.3919C71.3646 45.4171 71.3119 45.4237 71.2555 45.4138C71.1991 45.4038 71.1507 45.3781 71.1115 45.3381L70.2651 44.4617C70.2248 44.4202 70.1765 44.3945 70.1214 44.3848C70.0649 44.3748 70.0107 44.3825 69.9599 44.4079L68.8636 44.9418C68.8131 44.9659 68.7588 44.9735 68.7024 44.9636C68.6473 44.9539 68.5987 44.9294 68.5584 44.888C68.5194 44.8467 68.495 44.7975 68.4879 44.7407C68.4792 44.6849 68.4887 44.6311 68.5161 44.5804L69.088 43.5045C69.1152 43.4551 69.1247 43.4012 69.1162 43.3442C69.1078 43.2872 69.0844 43.2394 69.0442 43.1979L68.1991 42.3217C68.1588 42.2802 68.1357 42.2312 68.127 42.1755C68.1186 42.1185 68.1281 42.0646 68.1555 42.0139C68.1828 41.9645 68.2212 41.9263 68.2733 41.9011C68.324 41.8757 68.3783 41.8681 68.4347 41.878L69.6336 42.0894C69.69 42.0994 69.7443 42.0918 69.7948 42.0676C69.8469 42.0424 69.8853 42.0042 69.9128 41.9536L70.4846 40.8776C70.5118 40.8282 70.5503 40.7901 70.6023 40.7649C70.6531 40.7394 70.7071 40.7331 70.7635 40.743C70.8186 40.7528 70.8672 40.7772 70.9075 40.8187C70.9465 40.8599 70.9709 40.9092 70.978 40.966Z" fill="white"/>
<path d="M52.7503 37.7523L52.9209 38.9591C52.9283 39.0146 52.9527 39.0638 52.9917 39.1051C53.032 39.1466 53.0793 39.1708 53.1357 39.1807L54.3359 39.3924C54.3924 39.4023 54.4394 39.4278 54.4797 39.4693C54.5187 39.5105 54.5431 39.5598 54.5505 39.6153C54.5589 39.6723 54.5494 39.7262 54.522 39.7769C54.4961 39.8265 54.4563 39.8644 54.4055 39.8899L53.3105 40.424C53.2597 40.4494 53.2202 40.4861 53.1928 40.5368C53.1666 40.5877 53.1571 40.6415 53.1645 40.697L53.3351 41.9039C53.3423 41.9607 53.3328 42.0145 53.3069 42.0641C53.2794 42.1148 53.241 42.153 53.1889 42.1782C53.1382 42.2036 53.0842 42.21 53.0277 42.2C52.9713 42.1901 52.923 42.1644 52.8837 42.1244L52.0374 41.248C51.9971 41.2065 51.95 41.181 51.8936 41.1711C51.8372 41.1611 51.783 41.1687 51.7322 41.1942L50.6371 41.7283C50.5853 41.7522 50.5324 41.76 50.4759 41.7501C50.4195 41.7401 50.3712 41.7144 50.3319 41.6744C50.2917 41.633 50.2686 41.5839 50.2601 41.5269C50.2527 41.4714 50.2622 41.4176 50.2884 41.3666L50.8602 40.2907C50.8876 40.24 50.8969 40.1875 50.8885 40.1304C50.8813 40.0736 50.8567 40.0257 50.8177 39.9844L49.9713 39.108C49.9311 39.0665 49.908 39.0175 49.8993 38.9618C49.8921 38.905 49.9016 38.8511 49.9278 38.8002C49.955 38.7508 49.9935 38.7126 50.0455 38.6874C50.0963 38.662 50.1505 38.6544 50.2069 38.6643L51.4072 38.8759C51.4623 38.8857 51.5163 38.8793 51.5671 38.8539C51.6191 38.8287 51.6576 38.7905 51.6848 38.7411L52.2566 37.6652C52.2841 37.6145 52.3225 37.5763 52.3746 37.5511C52.4253 37.5257 52.4795 37.5181 52.536 37.528C52.5924 37.538 52.6395 37.5635 52.6797 37.605C52.7187 37.6462 52.7431 37.6955 52.7503 37.7523Z" fill="white"/>
<path d="M64.5679 77.3215L64.7372 78.528C64.7457 78.5851 64.7688 78.6341 64.8093 78.6743C64.8483 78.7155 64.8966 78.7413 64.9531 78.7512L66.1533 78.9628C66.2084 78.9726 66.2568 78.9983 66.2971 79.0398C66.3361 79.081 66.3607 79.129 66.3678 79.1858C66.3763 79.2428 66.367 79.2954 66.3396 79.3461C66.3134 79.397 66.2737 79.4349 66.2231 79.4591L65.1268 79.9929C65.076 80.0184 65.0363 80.0563 65.0101 80.1072C64.9829 80.1566 64.9734 80.2105 64.9819 80.2675L65.1512 81.4741C65.1597 81.5311 65.1504 81.5837 65.123 81.6344C65.0968 81.6853 65.0573 81.722 65.0065 81.7474C64.9545 81.7726 64.9002 81.7802 64.8451 81.7705C64.7887 81.7606 64.7403 81.7348 64.7 81.6934L63.8537 80.8169C63.8147 80.7757 63.7661 80.7513 63.7097 80.7413C63.6546 80.7316 63.6005 80.7379 63.5485 80.7631L62.4534 81.2972C62.4027 81.3227 62.3485 81.3303 62.292 81.3203C62.2356 81.3104 62.1885 81.2849 62.1483 81.2434C62.1093 81.2022 62.0847 81.1542 62.0775 81.0974C62.069 81.0404 62.0783 80.9878 62.1058 80.9371L62.6776 79.8612C62.7037 79.8103 62.7132 79.7564 62.7058 79.7009C62.6974 79.6439 62.6743 79.5949 62.634 79.5534L61.7877 78.677C61.7484 78.637 61.7241 78.5878 61.7169 78.531C61.7084 78.4739 61.7177 78.4214 61.7452 78.3707C61.7713 78.3197 61.8108 78.2831 61.8616 78.2577C61.9136 78.2325 61.9666 78.2246 62.023 78.2346L63.2232 78.4462C63.2797 78.4561 63.3326 78.4483 63.3847 78.4231C63.4352 78.3989 63.4749 78.361 63.5011 78.3101L64.0742 77.2344C64.1004 77.1835 64.1401 77.1455 64.1909 77.1201C64.2427 77.0962 64.2956 77.0883 64.3521 77.0983C64.4085 77.1082 64.4568 77.134 64.4973 77.1742C64.5363 77.2154 64.5607 77.2647 64.5679 77.3215Z" fill="white"/>
<path d="M46.3403 74.1076L46.511 75.3144C46.5182 75.3712 46.5425 75.4204 46.5818 75.4604C46.622 75.5019 46.6691 75.5274 46.7255 75.5373L47.9258 75.749C47.9822 75.7589 48.0293 75.7844 48.0695 75.8259C48.1085 75.8671 48.1331 75.9151 48.1403 75.9719C48.1488 76.0289 48.1395 76.0815 48.112 76.1322C48.0859 76.1831 48.0461 76.2211 47.9956 76.2452L46.9005 76.7793C46.8485 76.8045 46.81 76.8427 46.7826 76.8934C46.7566 76.943 46.7472 76.9969 46.7543 77.0537L46.9237 78.2602C46.9321 78.3173 46.9229 78.3698 46.8954 78.4205C46.8692 78.4715 46.8297 78.5081 46.779 78.5335C46.7269 78.5587 46.674 78.5666 46.6176 78.5566C46.5611 78.5467 46.5128 78.521 46.4738 78.4797L45.6274 77.6033C45.5872 77.5618 45.5399 77.5376 45.4834 77.5277C45.427 77.5177 45.373 77.5241 45.3223 77.5495L44.2272 78.0836C44.1751 78.1088 44.1209 78.1164 44.0658 78.1067C44.0094 78.0967 43.961 78.071 43.922 78.0298C43.8817 77.9883 43.8584 77.9406 43.8499 77.8835C43.8415 77.8265 43.8508 77.7739 43.8782 77.7233L44.45 76.6473C44.4775 76.5967 44.487 76.5428 44.4783 76.4871C44.4711 76.4303 44.4467 76.381 44.4077 76.3398L43.5614 75.4633C43.5209 75.4231 43.4978 75.3741 43.4893 75.3171C43.4809 75.2601 43.4902 75.2075 43.5176 75.1568C43.5451 75.1061 43.5833 75.0692 43.6353 75.044C43.6861 75.0186 43.7403 75.011 43.7968 75.0209L44.9957 75.2323C45.0521 75.2423 45.1064 75.2346 45.1571 75.2092C45.2089 75.1853 45.2474 75.1471 45.2748 75.0964L45.8467 74.0205C45.8728 73.9696 45.9126 73.9317 45.9631 73.9075C46.0151 73.8823 46.0694 73.8747 46.1258 73.8846C46.1822 73.8946 46.2293 73.9201 46.2696 73.9616C46.3101 74.0018 46.3332 74.0508 46.3403 74.1076Z" fill="white"/>
</g>
</g>
<defs>
<clipPath id="clip0_1_1689">
<rect width="100" height="100" fill="white" transform="translate(17.3648) rotate(9.99999)"/>
</clipPath>
<clipPath id="clip1_1_1689">
<rect width="100" height="100" fill="white" transform="translate(17.3648) rotate(9.99999)"/>
</clipPath>
</defs>
</svg>
