<svg width="26" height="24" viewBox="0 0 26 24" fill="none" xmlns="http://www.w3.org/2000/svg">
<path fill-rule="evenodd" clip-rule="evenodd" d="M24.8043 6.58009H23.6949L23.9085 5.48217C23.9634 5.2002 23.7693 4.96191 23.4844 4.96191C23.1994 4.96191 22.912 5.2002 22.8572 5.48217L22.6436 6.58009H21.5342C21.2493 6.58009 20.9626 6.8184 20.9077 7.10037C20.8529 7.38231 21.047 7.62062 21.3319 7.62062H22.4412L22.2276 8.71854C22.1727 9.00051 22.3669 9.23882 22.6518 9.23882C22.9367 9.23882 23.2241 9.00051 23.2783 8.71854L23.492 7.62062H24.6012C24.8856 7.62062 25.173 7.38231 25.2278 7.10037C25.2838 6.81902 25.0891 6.58009 24.8043 6.58009Z" fill="white"/>
<path fill-rule="evenodd" clip-rule="evenodd" d="M11.9795 3.60799C11.9707 3.01846 11.8994 2.19877 11.6221 1.49011C12.5146 1.6573 12.9539 2.65666 13.1392 3.25241C12.7957 3.35782 12.4043 3.4776 11.9795 3.60799ZM7.30768 11.4269C7.3871 12.6727 10.6987 12.9447 10.8846 15.8629C11.0309 18.1586 9.65428 19.7287 7.67074 19.8528C5.29007 20.0013 3.97967 18.6115 3.97967 18.6115L4.48392 16.4873C4.48392 16.4873 5.80313 17.4724 6.85888 17.4062C7.54845 17.3632 7.79488 16.808 7.77031 16.415C7.66695 14.7899 4.97052 14.8853 4.79968 12.2154C4.65661 9.96837 6.14728 7.69145 9.43746 7.48565C10.705 7.40643 11.3542 7.72645 11.3542 7.72645L10.6016 10.5118C10.6016 10.5118 9.76269 10.1337 8.76746 10.1955C7.30831 10.2885 7.29255 11.1992 7.30768 11.4269ZM9.59567 0.775844C9.87176 0.770228 10.1043 0.830116 10.3029 0.959247C9.98521 1.12269 9.6776 1.35724 9.38957 1.66291C8.64266 2.45579 8.07034 3.68722 7.84217 4.87497C7.12992 5.09329 6.43343 5.30659 5.79307 5.50315C6.19708 3.63357 7.7804 0.827621 9.59567 0.775844ZM11.1979 3.84753C10.4151 4.08764 9.56038 4.3497 8.70252 4.61234C8.94394 3.69843 9.40092 2.78828 9.96252 2.19191C10.1711 1.96983 10.4636 1.7228 10.8096 1.58119C11.1355 2.25242 11.2055 3.20438 11.1979 3.84753ZM14.6141 2.80012C14.6122 2.80075 14.3431 2.88308 13.888 3.02283C13.8124 2.77885 13.7002 2.47879 13.5407 2.17748C13.0264 1.20626 12.2726 0.691606 11.3624 0.690297H11.3593C11.2962 0.690297 11.2332 0.69591 11.1702 0.701588C11.1437 0.669709 11.1166 0.637958 11.0876 0.608013C10.6911 0.188183 10.1818 -0.0164918 9.57298 0.00103758C8.39682 0.0347239 7.22573 0.874947 6.2765 2.36781C5.60775 3.41825 5.10034 4.73834 4.95601 5.75951C3.6059 6.1731 2.66108 6.46317 2.64091 6.46942C1.95955 6.68089 1.93812 6.70211 1.84862 7.33778C1.78117 7.81874 -0.00195312 21.4673 -0.00195312 21.4673L14.7938 24V2.77012C14.7207 2.77511 14.6551 2.7882 14.6141 2.80012Z" fill="white"/>
<path fill-rule="evenodd" clip-rule="evenodd" d="M15.2832 23.9429L21.4211 22.4327C21.4211 22.4327 18.7782 4.74864 18.7619 4.627C18.7448 4.50599 18.6377 4.4386 18.5494 4.43113C18.4612 4.42363 16.7329 4.39804 16.7329 4.39804C16.7329 4.39804 15.679 3.3856 15.2832 3.00195V23.9429Z" fill="white"/>
</svg>
